<?xml version="1.0" encoding="UTF-8"?>
<svg id="Layer_1" xmlns="http://www.w3.org/2000/svg" version="1.1" viewBox="0 0 1920 1080">
  <!-- Generator: Adobe Illustrator 29.3.1, SVG Export Plug-In . SVG Version: 2.1.0 Build 151)  -->
  <defs>
    <style>
      .st0 {
        fill: #f8c79c;
      }

      .st1 {
        fill: #777;
      }

      .st2 {
        fill: #69def9;
      }

      .st2, .st3, .st4, .st5, .st6, .st7 {
        stroke-miterlimit: 10;
      }

      .st2, .st4, .st5 {
        stroke: #000;
      }

      .st8 {
        fill: #47280b;
      }

      .st3 {
        fill: none;
        stroke: #8d8894;
      }

      .st9 {
        fill: #5fc447;
      }

      .st10 {
        fill: #ffda03;
      }

      .st4 {
        fill: #84d36a;
      }

      .st5 {
        fill: #d12c2c;
      }

      .st11 {
        fill: #020202;
      }

      .st12, .st7 {
        fill: #fff;
      }

      .st6 {
        stroke: #0c0c0c;
      }

      .st13 {
        fill: #724f35;
      }

      .st7 {
        stroke: #fff;
      }

      .st14 {
        fill: #ba8e6e;
      }

      .st15 {
        fill: #e64c3c;
      }

      .st16 {
        fill: #24ae5f;
      }

      .st17 {
        fill: #ffec00;
      }

      .st18 {
        fill: #4f6743;
      }

      .st19 {
        fill: #583512;
      }

      .st20 {
        fill: #c9ba4c;
      }
    </style>
  </defs>
  <polyline class="st2" points="-11.1 678 -11.1 -12.86 1956 -5.56 1954.7 659.16"/>
  <path class="st4" d="M-15.04,675.72c3.25-2.55,8.49-5.86,15.5-6.79,8.43-1.12,13.28,2.01,15.5,0,4.87-4.42-14-23.65-10.33-27.18,2.84-2.73,21.27,2.96,31.43,13.06,1.21,1.2,2.92,3.08,4.73,2.79,3.87-.62,2.44-10.22,7.75-20.38,5.32-10.18,15.45-17.19,18.08-15.85,2.29,1.16-2.63,7.89,0,18.12.66,2.57,2.59,10.1,7.75,11.32,4.43,1.05,6.06-3.79,15.5-6.79,9.43-3.01,20.62-2.26,20.66-2.26,3.14-5.7,4.71-8.56,5.17-9.06,1.94-2.13,6.44-2.8,20.25-.3,8.93,1.61,13.11,3,13.33,2.57.64-1.3-37.34-15.01-36.16-18.12,1.29-3.4,51.38,1.52,73.98,12.25.97.46,4.92,2.37,6.09,1.34,3.38-2.99-21.23-26.46-18.08-29.44,4.11-3.89,50.48,31.84,59.41,24.91,4.86-3.77-4.5-17.77,0-20.38,5.93-3.44,24.01,19.77,36.16,15.85,8.72-2.81,9.97-18.17,10.33-22.65,1.51-18.64-8.83-29.38-5.17-31.71,4.15-2.63,21.71,8.4,28.41,22.65,1.29,2.74,4.02,8.54,3.81,16.17-.19,7.01-2.7,10.04-1.23,11,3.42,2.25,21.72-11.06,36.16-27.18,7.49-8.35,11.09-14.28,12.91-13.59,2.64,1-.01,15.22-4.86,27.19-2.41,5.94-4,7.96-2.89,9.05,4.78,4.69,44.92-22.33,49.07-18.12,2.86,2.9-14.49,17.3-10.33,22.65,3.01,3.87,15.47.65,18.08,0,50.97-12.76,162.09-2.21,162.72-11.32.34-4.88-31.41-9.86-30.99-11.32.2-.69,1.27-.88,49.07,6.79-6.51-19.58-5.17-20.38-5.17-20.38,13.58,18.37,21.26,21.4,25.83,20.38,4.11-.92,4.23-4.78,10.33-9.06,10.92-7.64,27.45-7.13,28.41-4.53,1.19,3.21-21.47,9.43-20.66,13.59,2.04,10.43,131.73-2.26,131.73-2.26,358.15-.74,494.11.29,500.51,2.25.31.09,2.05.72,3.15.01,4.72-3.04-10.21-25.85-7.75-27.18,2.64-1.43,19.37,25.27,30.99,22.65,7.91-1.78,9.9-16.34,12.91-15.85,3.17.51.19,16.51,5.17,18.12,6.51,2.11,21.2-22.24,25.83-20.38,3.92,1.57-5.07,19.69,2.58,24.91,3.11,2.12,7,.78,12.91,0,24.17-3.19,41.24,8.35,43.91,4.53,2.71-3.88-14.48-16.46-12.91-18.12,2.15-2.28,34.72,21.06,41.33,15.85,3.82-3.01-3.84-13.35,0-15.85,1.7-1.11,3.02-1.4,25.83,11.32,11.58-6.25,12.91-6.79,12.91-6.79,10.31-4.22,24.35-3.58,25.83,0,1.39,3.38-16.8,10.2-15.5,13.59,1.12,2.91,14.76-1.18,33.58,0,24.21,1.52,38.2,10.59,41.33,6.79,3.55-4.31-12.73-18.11-10.33-20.38,3.55-3.37,41.83,24.57,46.49,20.38,1.74-1.56-2.99-5.95-5.17-15.85-1.92-8.74-1.74-21.31,2.58-22.65,8.69-2.68,30.87,41.11,38.74,38.5,4.16-1.38-2-13.64,5.17-27.18,8.02-15.16,28.52-23.94,33.58-20.38,3.21,2.26-1.74,8.13-2.58,22.65-.76,13.14,2.13,28.58,7.75,29.44,3.48.53,3.84-5.16,12.91-9.06,5.76-2.48,11.32-2.45,22.45-2.4.23,0,.5,0,.8.14,3.42,1.51-3.12,13.85,0,15.85,3.23,2.07,12.64-9.56,30.99-15.85,10.8-3.7,22.02-4.64,23.25-2.26,1.01,1.97-5.53,4.79-10.33,13.59-.56,1.03-5.12,9.51-2.58,11.32,2.26,1.61,8.45-3.25,15.5-6.79,21.32-10.72,48.05-8.1,49.07-4.53.64,2.24-8.24,6.96-12.51,8.85-3.5,1.55-5.68,2-5.57,2.47.24,1.08,12.42,1.68,25.22-1.17,5.36-1.2,9.4-2.68,10.94-1.09,1.56,1.6-.3,5.47-1.14,7.22-1.97,4.09-4.53,5.71-4.02,6.37.84,1.09,7.27-3.97,15.5-4.53,12.64-.86,19.03,9.63,25.83,6.79,4.14-1.73,5.81-7.3,5.17-11.32-1.37-8.62-13.68-12.22-12.91-13.59.99-1.77,23.57.82,30.99,13.59,4.82,8.28.33,15.81,5.17,18.2,4.16,2.05,8.86-2.84,23.25-6.87,9.53-2.67,19.87-4,20.66-2.26.99,2.17-13.82,7.32-12.91,11.32.49,2.19,5.76,4.35,25.83,4.53l1.29,454.1H-13.75l-1.29-435.99Z"/>
  <polygon class="st19" points="690.2 461.73 672.87 437.57 661.44 410.21 659.46 395.53 657.22 362.94 663.68 333.83 672.38 313.18 680.82 290.04 701.94 259.44 731.26 232.32 764.55 214.41 781.94 209.68 804.06 204.96 837.35 204.71 872.13 206.45 900.21 213.17 925.3 226.35 934.75 233.07 946.67 232.82 977.73 221.13 1008.29 212.17 1033.63 210.43 1074.13 211.67 1111.89 219.39 1147.92 231.58 1175.75 248.99 1205.31 272.87 1211.03 288.3 1224.45 309.94 1226.93 321.64 1227.92 343.28 1221.22 366.42 1216.74 386.57 1203.58 408.22 1203.82 415.18 1223.95 433.59 1237.12 450.01 1242.58 471.66 1247.55 492.06 1243.83 517.19 1234.14 544.3 1214.26 568.93 1214.51 578.14 1236.37 600.03 1247.55 622.92 1246.31 651.25 1234.63 675.66 1228.92 684.12 1213.76 698.3 1212.52 704.28 1225.19 721.19 1234.88 734.13 1237.61 742.09 1238.36 765.48 1234.14 784.63 1231.65 794.09 1215.5 811.26 1207.8 815.24 1208.54 824.19 1214.51 829.91 1224.45 838.62 1230.16 853.05 1229.66 879.42 1225.94 891.61 1213.51 904.55 1195.87 911.27 1195.62 919.23 1200.59 928.19 1200.1 948.84 1204.57 967 1210.53 995.11 1219.72 1020.24 1221.22 1036.41 1223.2 1056.56 1225.44 1076.46 1223.2 1089.9 1214.76 1098.11 1143.7 1098.11 1056.74 1098.11 961.83 1098.61 809.03 1096.12 806.54 1087.91 805.05 1021.98 805.87 1004.84 808.33 971.88 788.01 982.2 762.8 981.55 727.41 964.53 708.09 935.26 695.75 911.39 689.27 889.51 681.32 869.44 681.24 847.91 691.73 835.34 702.53 818.24 702.76 812.63 696.45 806.34 688.68 799.31 681.32 786.51 681.26 762.9 685.39 750.45 692.56 738.52 698.28 729.53 698.29 724.26 687.45 711.21 665.18 687.48 660.47 679.37 657.52 663.48 660.45 639.94 664.71 626.79 683.73 601.87 688.2 599.24 687.36 592.7 676.99 585.09 663.36 568.04 649.58 549.87 647.78 526.95 652.26 502.99 667.94 484.23 684.92 473.8 689.87 471.33 690.2 461.73"/>
  <polygon class="st18" points="858.85 802.05 856.75 816.39 851.06 832.26 836.7 841.94 844.34 852.22 845.3 870.68 831.91 894.72 825.74 900.85 818.57 900.85 818.57 905.95 826.68 923.91 814.25 967.43 808.33 971.88 805.05 1021.98 809.03 1096.12 1214.76 1098.11 1225.44 1076.46 1223.2 1056.56 1219.72 1020.24 1199.71 953.42 1186.31 981.04 1146.83 999.87 1104.38 991.01 1079.41 960.17 1080.09 911.48 1096.57 883.35 1079.74 863.81 1071.57 860.2 1060.38 840.17 1069.19 808.42 1050.33 785.81 1046.61 824.49 989.36 948.83 970.76 999.51 950.18 1028.13 926.23 998.84 908.99 952.65 885.66 892.6 868.43 841.8 858.85 802.05"/>
  <path class="st0" d="M756.62,691.99l5.92-272.01,9.87-29.64s16.43-25.86,21.71-30.96,20.96-12.37,31.57-15.15c10.61-2.78,33.59-1.86,33.59-1.86,0,0,22.14.52,30.21,1.86s28.76,3.91,37.49,11.2c8.74,7.29,15.79,13.17,15.79,13.17,0,0,44.49-17.27,47.36-17.78s32.32-6.11,36.83-6.59c4.51-.48,28.37,2.9,30.91,3.95,2.54,1.05,29.63,11.99,33.54,13.83s12.45,10.6,15.79,13.83c3.34,3.23,12.02,22.35,12.5,24.37s6.69,24.31,6.58,27.66c-.11,3.35-7.89,236.45-7.89,236.45l-7.89,43.47-19.73,42.81-40.68,37.83-40.33,19.68-40.18,22.12-33.89-1.17-56.99-16.04-53.67-24.59-38.81-32.56-20.39-24.37-9.21-39.52Z"/>
  <polygon class="st7" points="863.19 805.61 878.7 813.02 913.46 823.32 935.69 829.06 946.98 830.23 969.57 830.23 985.97 823.01 994.18 817.92 1009.75 808.11 1021.63 802.78 1039.45 792.95 1043.42 788.43 1050.08 788.43 1050.08 798.07 1050.08 804.29 1048.07 809.33 1046.61 824.49 1041 835.37 1037.01 844.12 1027.93 859.07 1025.62 873.21 1019.66 879.69 1013.97 892.96 1008.27 906.79 1003.43 918.09 998.32 927.69 994.33 937 990.06 946.04 989.76 952.54 983.23 961 983.76 970.33 979.23 974.56 979.48 982.48 973.54 987.55 970.76 999.51 950.18 1028.13 926.23 998.84 921.6 979.45 915.42 970.66 912.63 960.19 905.36 940.37 896.13 914.88 885.66 892.6 874.85 863.06 871.26 839.29 864.54 822.87 863.19 805.61"/>
  <path class="st3" d="M921.06,825.26s-2.17,9.67,0,10.86c2.17,1.19,8.08,3.92,7.62,7.11-.79,2.2-11.01,4.78-11.02,7.05,0,2.26,2.92,9.43,4.18,11.47,1.26,2.04,8.31,4.43,8.25,7.87-.06,3.44-12.66,12.87-12.43,15.34.23,2.47.79,10.41,2.25,11.61,1.46,1.2,9.11,5.2,8.58,9.67s-7.89,8.65-8.95,10.98c-1.07,2.33-.01,9.93.7,15.23.71,5.29,6.94,8.21,8.08,12.77,1.14,4.55-9.06,9.84-9.06,9.84l.1,15.23,9.72,17.97-.17,6.93-2.66,3.64-1.26,1.41"/>
  <path class="st3" d="M946.98,830.23s-5.91,5.68-5.91,9.47,15.56,9.86,15.56,13.74-9.22,10.17-9.25,13.52,10.24,6.14,10.67,9.59-13.4,14.75-13.28,19.63c.11,4.88,12.65,10.15,13.28,15.05.64,4.89-9.66,1.72-11.11,5.89-1.45,4.16-.23,9.85-.22,13.3s7.66,6.65,8.06,11.55c.4,4.9-10.03,8.57-11.11,11.57-1.08,2.99-.17,10.71-.22,13.96-.05,3.25,6.72.61,7.19,5.89.47,5.28-9.46,8.95-9.36,11.78.1,2.82.16,9.76.44,12.43s9.56,2.37,9.58,6.54c.02,4.17-7.4,13.74-7.4,13.74l-2.17,2.54"/>
  <path class="st3" d="M975.05,827.28s-3.81,7.51-3.43,9.54c.38,2.03,13.14,11.99,13.23,13.87s-9.49,15.93-9.8,18.12,3.53,14.33,3.2,16.61-7.92,9.65-7.92,11.33.03,7.4,0,8.87,10.31,7.06,10.37,9.63c.06,2.56-11.12,9.73-11.12,11.7s.02,9.2,0,10.57,7.86,2.22,9.05,5.29c1.19,3.07-6.98,11.64-7.35,14.16s1.89,27.94,1.89,27.94l1.61,3.67"/>
  <line class="st3" x1="917.66" y1="850.28" x2="863.19" y2="820.07"/>
  <line class="st3" x1="917.66" y1="884.95" x2="870.54" y2="848.01"/>
  <line class="st3" x1="980.72" y1="845.06" x2="1049.58" y2="812.04"/>
  <line class="st3" x1="976.84" y1="877.84" x2="1036" y2="850.28"/>
  <path class="st14" d="M918.13,553.66l-54.23,84.63c-1.51,2.36-.51,5.51,2.08,6.57l82.16,33.42-.28-1.43c-.26-1.31-1.08-2.43-2.25-3.07l-62.89-34.24h0c-2.13-1.16-2.95-3.81-1.84-5.98l.41-.8,37.56-73.43c.62-1.21.66-2.65.09-3.89l-.81-1.79Z"/>
  <path class="st14" d="M866.97,642.48"/>
  <ellipse class="st5" cx="949.18" cy="727.96" rx="60" ry="23"/>
  <polygon class="st13" points="1040.83 514.88 1034.2 511.67 985.38 501.7 985.1 502.29 973.25 496.55 973.05 495.34 970.98 494.4 972.97 491.62 981.84 495.06 982.33 494.05 988.44 496.71 990.34 496.68 994.55 497.4 995.4 496.63 1004.45 499.7 1010.96 501.53 1011.78 500.81 1015.12 502.04 1015.2 501.22 1018.26 502.7 1019.72 501.63 1025.58 504.14 1027.83 503.72 1032.8 506.13 1035.08 505.65 1041.32 508.35 1045.75 511.54 1040.83 514.88"/>
  <polygon class="st13" points="813.89 520.94 820.05 516.63 867.51 498.5 867.88 499.03 878.9 491.34 878.92 490.1 880.85 488.82 878.44 486.39 870.06 491.3 869.42 490.38 863.7 494.05 861.78 494.34 857.67 495.77 856.7 495.15 848.09 499.72 841.84 502.64 840.91 502.07 837.74 503.85 837.54 503.05 834.69 505.04 833.07 504.22 827.56 507.71 825.24 507.67 820.62 510.89 818.27 510.81 812.41 514.54 808.45 518.46 813.89 520.94"/>
  <path class="st8" d="M835.5,541.96c0-5.96,5.15-10.79,11.49-10.79s11.49,4.83,11.49,10.79c0,4.3-3.03,7.31-3.54,7.79-.35.33-3.48,3.17-7.96,3-.64-.02-5.54-.14-8.9-4.22-.59-.72-2.59-3.21-2.59-6.57Z"/>
  <polygon class="st6" points="815.39 554.49 816.17 557.08 817.6 556.65 818.12 558.4 825.43 556.2 824.48 553.03 825.84 552.62 824.96 549.71 826.77 549.16 825.37 544.51 834.04 541.9 838.57 540.54 839.09 542.28 850.91 538.66 850.91 538.66 858.85 536.22 861.18 535.5 867.24 533.82 868.11 536.73 868.11 536.73 868.68 538.39 868.68 538.39 869.88 542.83 871.49 542.34 873.23 548.1 875.94 547.28 875.5 545.79 877.11 545.31 875.79 540.91 877.21 540.48 874.53 531.55 873.06 532.06 871.22 526.2 866.95 527.48 866.31 526.05 856.22 529.09 855.64 527.64 846.78 530.31 846.27 528.84 843.35 529.71 843.35 529.71 840.31 530.63 840.31 530.63 837.47 531.48 837.47 531.48 834.36 532.42 834.36 532.42 821.16 536.39 821.53 537.83 818.62 538.71 819.49 541.62 818.11 542.18 818.54 543.6 816.94 544.15 818.68 550.19 817.26 550.61 816.67 548.89 815.46 549.32 816.91 553.9 815.39 554.49"/>
  <polygon class="st6" points="971.31 536.07 970.97 538.75 972.44 538.94 972.21 540.75 979.78 541.72 980.2 538.44 981.61 538.62 982 535.6 983.87 535.84 984.49 531.02 993.47 532.17 998.16 532.77 997.93 534.58 1010.2 536.09 1010.2 536.09 1018.44 537.1 1020.87 537.39 1027.08 538.32 1026.69 541.34 1026.69 541.34 1026.54 543.09 1026.54 543.09 1025.82 547.63 1027.49 547.84 1026.73 553.81 1029.54 554.17 1029.74 552.63 1031.41 552.84 1032 548.28 1033.47 548.47 1034.66 539.23 1033.11 539.1 1033.83 532.99 1029.4 532.42 1029.4 530.85 1018.95 529.51 1019.01 527.95 1009.83 526.78 1009.96 525.23 1006.95 524.84 1006.95 524.84 1003.8 524.44 1003.8 524.44 1000.85 524.06 1000.85 524.06 997.63 523.64 997.63 523.64 983.96 521.89 983.71 523.36 980.69 522.97 980.3 525.98 978.81 525.93 978.62 527.4 976.94 527.25 976.07 533.48 974.6 533.29 974.76 531.47 973.48 531.37 972.94 536.14 971.31 536.07"/>
  <path class="st8" d="M994.15,538.18c0-5.96,5.15-10.79,11.49-10.79s11.49,4.83,11.49,10.79c0,4.3-3.03,7.31-3.54,7.79-.35.33-3.48,3.17-7.96,3-.64-.02-5.54-.14-8.9-4.22-.59-.72-2.59-3.21-2.59-6.57Z"/>
  <path class="st9" d="M836.48,767.81c-10.32.64-18.94.82-25.49.84-9.79.03-13.32-.31-17.22-1.54-1.54-.49-7.54-2.51-12.84-7.81-2.88-2.88-3.01-4.19-8.9-16.03-5.95-11.97-7.15-13.3-5.87-16.01.57-1.21,1.98-3.41,20.85-12.49,9.01-4.33,13.51-6.5,17.41-7.66,4.04-1.21,13.17-3.84,23.4-2.31,1.7.25,7.64,1.25,13.7,4.91,1.22.73,5.26,3.28,9.53,8.77,6.23,8.01,12.3,16.13,8.78,26.68-4.42,13.23-21.1,21.56-23.35,22.65Z"/>
  <path class="st16" d="M848.18,753.82c-5.53-1.47-4.68-5.41-11.26-9.74-2.49-1.64-4.64-2.4-8.94-3.92-4.44-1.57-7.84-2.27-13.62-3.46-7.05-1.45-10.58-2.18-12.54-2-4.82.43-8.56,2.09-11.74.43-.59-.31-2.35-1.23-2.17-2.92.09-.85.65-1.62,1.22-2.42,0,0,1.2-1.66,2.87-2.89,4.1-3,16.78-.4,16.78-.4,16.24,3.33,13.36,1.53,19.67,3.49,13.55,4.19,20.54,10.54,24.95,14.65,5.56,5.18,5.34,6.93,4.77,7.77-1.25,1.86-6.3,2.39-10.01,1.4Z"/>
  <path class="st15" d="M973.39,760.89c26.11,11.78,10.23,53.01,9.68,57.72-2.07,17.84-10.27,45.94-24.14,47.4-3.49.37-7.01-.98-12.62,1.08-6.53,2.41-10.47,7.46-12.38,9.97-5.29,6.95-4.05,10.45-8.77,14.83-4.18,3.87-9.08,4.77-12.27,5.36-41.84,7.66-82.34-23.3-82.34-23.3-11.46-8.76-42.06-32.16-43.06-64.6-.12-4.04-.6-19.43,9.56-32.78,2.21-2.9,10.32-12.8,23.93-16.29,8.24-2.11,11.38-.06,19.43-2.38,9.47-2.73,15.9-8.69,19.84-13.25,1.04-5.27,4.43-18.68,16.27-29.46.52-.47,1.18-1.07,1.97-1.76h0c22.39,37.14,62.33,58.06,92.26,48.32l2.64-.86Z"/>
  <path class="st12" d="M921.14,184.33c-3.52.07-6.87-7.05-8.15-12.23-1.31-5.32.12-6.33-.68-10.87-1.31-7.42-6.04-9.79-12.91-19.02-2.94-3.96-7.04-9.47-9.51-16.31-5.29-14.67-.63-28.68.68-32.61,4.54-13.64,13.1-21.57,15.63-23.78,4.42-3.87,11.29-9.88,21.74-10.87.43-.04,8.94-.76,16.31,2.72,16.25,7.67,25.92,35.3,20.38,57.75-6.04,24.45-26.75,29.05-36.69,55.71-.94,2.52-3.35,9.44-6.79,9.51Z"/>
  <path class="st17" d="M914.34,178.89c-2.97-4.55.57-7.21-2.72-16.31-2.05-5.68-3.79-5.63-10.87-16.98-2.9-4.65-5.56-8.96-8.15-14.95-2.14-4.95-3.94-9.09-4.76-14.27-1.99-12.59,3.08-23.01,5.44-27.85,1.97-4.05,6.01-12.12,14.95-19.02,11.92-9.21,24.43-10.06,27.18-10.19,2.89-.14,13.18-.37,24.46,5.44,2.59,1.33,11.31,6.11,18.34,16.31,7.46,10.82,8.61,21.35,8.83,23.78,1.31,14.31-4.23,25.48-6.79,29.89-4.93,8.49-7.95,7.7-11.55,16.31-.66,1.58-.9,2.42-6.11,18.34-1.3,3.96-1.95,5.95-2.04,6.11-6.69,12.49-38.7,14.85-46.2,3.4Z"/>
  <path class="st20" d="M960.54,174.81c-6.23,5.2-19.15,4.36-23.1-2.04-3.12-5.06.37-11.98,4.76-20.38,9.43-18.09,17.2-19.88,22.42-29.89,12.12-23.26-9.72-51.91-4.08-55.03,4.22-2.33,20.23,11.53,25.14,29.89,4.57,17.11-1.77,32.45-2.72,34.65-5.83,13.56-13.64,15.06-17.66,30.57-1.51,5.83-1.4,9.42-4.76,12.23Z"/>
  <path class="st12" d="M866.79,112.99"/>
  <line class="st12" x1="868.83" y1="112.99" x2="838.93" y2="112.99"/>
  <path class="st10" d="M838.25,117.75s-2.04-2.72,0-4.08c2.04-1.36,29.18-.64,29.18-.64,0,0,5.46,1.99.03,4.71"/>
  <path class="st10" d="M863.27,42.57s.55-3.35,2.94-2.83c2.39.53,20.69,20.6,20.69,20.6,0,0,2.35,5.32-3.38,3.29"/>
  <path class="st10" d="M935.95,4.53s2.57-2.22,4.07-.28c1.5,1.94,2.67,29.07,2.67,29.07,0,0-1.61,5.59-4.7.36"/>
  <path class="st10" d="M1011.22,40s3.36.5,2.87,2.9-20.31,20.97-20.31,20.97c0,0-5.29,2.42-3.33-3.33"/>
  <path class="st10" d="M1038.77,112.89s2.04,2.72,0,4.08c-2.04,1.36-29.18.67-29.18.67,0,0-5.47-1.99-.03-4.71"/>
  <path class="st10" d="M892.25,160.23s3.33.68,2.71,3.05-21.41,19.84-21.41,19.84c0,0-5.41,2.13-3.15-3.51"/>
  <path class="st10" d="M1011.24,181.1s-.29,3.38-2.72,3.04c-2.43-.34-22.19-18.97-22.19-18.97,0,0-2.75-5.13,3.12-3.53"/>
  <path class="st11" d="M959.51,178.95s3.07,2.71.01,4.08-43.89.76-43.89.76c0,0-8.22-1.97-.06-4.71"/>
  <path class="st11" d="M959.88,185.12s3.07,2.71.01,4.08-43.89.76-43.89.76c0,0-8.22-1.97-.06-4.71"/>
  <path class="st11" d="M959.2,191.92s3.07,2.71.01,4.08c-3.06,1.37-43.89.76-43.89.76,0,0-8.22-1.97-.06-4.71"/>
  <path class="st11" d="M959.88,198.71s3.07,2.71.01,4.08c-3.06,1.37-43.89.76-43.89.76,0,0-8.22-1.97-.06-4.71"/>
  <path class="st1" d="M959.17,175.19s3.07,2.71.01,4.08c-3.06,1.37-43.89.76-43.89.76,0,0-8.22-1.97-.06-4.71"/>
  <path class="st1" d="M959.54,181.36s3.07,2.71.01,4.08c-3.06,1.37-43.89.76-43.89.76,0,0-8.22-1.97-.06-4.71"/>
  <path class="st1" d="M958.86,188.15s3.07,2.71.01,4.08-43.89.76-43.89.76c0,0-8.22-1.97-.06-4.71"/>
  <path class="st1" d="M959.54,194.95s3.07,2.71.01,4.08c-3.06,1.37-43.89.76-43.89.76,0,0-8.22-1.97-.06-4.71"/>
</svg>