<?xml version="1.0" encoding="UTF-8"?>
<svg id="Layer_1" xmlns="http://www.w3.org/2000/svg" version="1.1" viewBox="0 0 1920 1080">
  <!-- Generator: Adobe Illustrator 29.3.1, SVG Export Plug-In . SVG Version: 2.1.0 Build 151)  -->
  <defs>
    <style>
      .st0 {
        fill: #f8c79c;
      }

      .st1 {
        fill: #69def9;
      }

      .st1, .st2, .st3, .st4, .st5, .st6 {
        stroke-miterlimit: 10;
      }

      .st1, .st3, .st4 {
        stroke: #000;
      }

      .st7 {
        fill: #47280b;
      }

      .st8 {
        font-family: MyriadPro-Regular, 'Myriad Pro';
        font-size: 12px;
      }

      .st2 {
        fill: none;
        stroke: #8d8894;
      }

      .st9 {
        fill: #5fc447;
      }

      .st3 {
        fill: #84d36a;
      }

      .st4 {
        fill: #d12c2c;
      }

      .st5 {
        stroke: #0c0c0c;
      }

      .st10 {
        font-family: ComicBook-Bold, 'Comic Book';
        font-size: 72px;
        font-weight: 700;
      }

      .st11 {
        fill: #724f35;
      }

      .st12 {
        fill: #916d46;
      }

      .st6 {
        fill: #fff;
        stroke: #fff;
      }

      .st13 {
        fill: #ba8e6e;
      }

      .st14 {
        fill: #e64c3c;
      }

      .st15 {
        fill: #24ae5f;
      }

      .st16 {
        fill: #4f6743;
      }

      .st17 {
        fill: #c64946;
      }

      .st18 {
        fill: #583512;
      }
    </style>
  </defs>
  <path class="st12" d="M778.74-243.62c.33-.7-.2-1.11,0-2.75.12-1.04.43-1.62,1-3,1.02-2.46.96-2.78,1.5-4,1.17-2.66,2.87-4.36,4.5-6,2.52-2.53,5.13-2.54,6.25-4.75.17-.33.58-1.16.5-2.25-.03-.37-.09-1.25-.75-2-.69-.79-1.8-1.15-2.75-1-.79.12-.96.52-2.5,1.5-1.16.74-1.42.74-2.25,1.25-1.21.74-1.91,1.51-3.25,3-1.95,2.16-3.19,4.03-3.5,4.5-.7,1.07-1.77,2.71-2.75,5-1.35,3.14-.76,3.39-2.25,7.25-.89,2.32-1.34,2.84-1,3.5.94,1.84,6.35,1.63,7.25-.25Z"/>
  <path class="st9" d="M763.24-243.12c-2.69-2.33-4.87-4.39-6.5-6-2.44-2.4-3.26-3.38-4-4.75-.29-.54-1.41-2.69-1.75-5.75-.18-1.66.03-2.13.75-7.5.73-5.43.68-6.17,1.5-6.75.37-.26,1.12-.64,7.5,1,3.04.78,4.56,1.17,5.75,1.75,1.23.6,3.99,1.97,6.25,5,.38.5,1.67,2.3,2.5,5,.17.54.7,2.38.75,5.25.07,4.19.08,8.37-2.75,11-3.55,3.29-9.24,1.94-10,1.75Z"/>
  <path class="st15" d="M768.74-244.87c-1.1-1.85-.16-2.95-1-6-.32-1.16-.71-1.94-1.5-3.5-.81-1.61-1.53-2.68-2.75-4.5-1.49-2.22-2.23-3.33-2.75-3.75-1.28-1.04-2.52-1.42-3-2.75-.09-.25-.36-.99,0-1.5.18-.26.46-.38.75-.5,0,0,.61-.26,1.25-.25,1.58.02,4.25,4,4.25,4,3.42,5.1,3.04,3.8,4.25,6,2.6,4.73,3.16,8.55,3.5,11,.42,3.08.05,3.61-.25,3.75-.65.31-2.01-.76-2.75-2Z"/>
  <path class="st12" d="M1097.74-284.62c.33-.7-.2-1.11,0-2.75.12-1.04.43-1.62,1-3,1.02-2.46.96-2.78,1.5-4,1.17-2.66,2.87-4.36,4.5-6,2.52-2.53,5.13-2.54,6.25-4.75.17-.33.58-1.16.5-2.25-.03-.37-.09-1.25-.75-2-.69-.79-1.8-1.15-2.75-1-.79.12-.96.52-2.5,1.5-1.16.74-1.42.74-2.25,1.25-1.21.74-1.91,1.51-3.25,3-1.95,2.16-3.19,4.03-3.5,4.5-.7,1.07-1.77,2.71-2.75,5-1.35,3.14-.76,3.39-2.25,7.25-.89,2.32-1.34,2.84-1,3.5.94,1.84,6.35,1.63,7.25-.25Z"/>
  <path class="st9" d="M1082.24-284.12c-2.69-2.33-4.87-4.39-6.5-6-2.44-2.4-3.26-3.38-4-4.75-.29-.54-1.41-2.69-1.75-5.75-.18-1.66.03-2.13.75-7.5.73-5.43.68-6.17,1.5-6.75.37-.26,1.12-.64,7.5,1,3.04.78,4.56,1.17,5.75,1.75,1.23.6,3.99,1.97,6.25,5,.38.5,1.67,2.3,2.5,5,.17.54.7,2.38.75,5.25.07,4.19.08,8.37-2.75,11-3.55,3.29-9.24,1.94-10,1.75Z"/>
  <path class="st15" d="M1087.74-285.87c-1.1-1.85-.16-2.95-1-6-.32-1.16-.71-1.94-1.5-3.5-.81-1.61-1.53-2.68-2.75-4.5-1.49-2.22-2.23-3.33-2.75-3.75-1.28-1.04-2.52-1.42-3-2.75-.09-.25-.36-.99,0-1.5.18-.26.46-.38.75-.5,0,0,.61-.26,1.25-.25,1.58.02,4.25,4,4.25,4,3.42,5.1,3.04,3.8,4.25,6,2.6,4.73,3.16,8.55,3.5,11,.42,3.08.05,3.61-.25,3.75-.65.31-2.01-.76-2.75-2Z"/>
  <polyline class="st1" points="-18.35 652.19 -18.35 -12.33 1935.59 -5.3 1934.3 634.07"/>
  <path class="st3" d="M-15.3,656.26c3.25-2.55,8.49-5.86,15.5-6.79,8.43-1.12,13.28,2.01,15.5,0,4.87-4.42-14-23.65-10.33-27.18,2.84-2.73,21.27,2.96,31.43,13.06,1.21,1.2,2.92,3.08,4.73,2.79,3.87-.62,2.44-10.22,7.75-20.38,5.32-10.18,15.45-17.19,18.08-15.85,2.29,1.16-2.63,7.89,0,18.12.66,2.57,2.59,10.1,7.75,11.32,4.43,1.05,6.06-3.79,15.5-6.79,9.43-3.01,20.62-2.26,20.66-2.26,3.14-5.7,4.71-8.56,5.17-9.06,1.94-2.13,6.44-2.8,20.25-.3,8.93,1.61,13.11,3,13.33,2.57.64-1.3-37.34-15.01-36.16-18.12,1.29-3.4,51.38,1.52,73.98,12.25.97.46,4.92,2.37,6.09,1.34,3.38-2.99-21.23-26.46-18.08-29.44,4.11-3.89,50.48,31.84,59.41,24.91,4.86-3.77-4.5-17.77,0-20.38,5.93-3.44,24.01,19.77,36.16,15.85,8.72-2.81,9.97-18.17,10.33-22.65,1.51-18.64-8.83-29.38-5.17-31.71,4.15-2.63,21.71,8.4,28.41,22.65,1.29,2.74,4.02,8.54,3.81,16.17-.19,7.01-2.7,10.04-1.23,11,3.42,2.25,21.72-11.06,36.16-27.18,7.49-8.35,11.09-14.28,12.91-13.59,2.64,1-.01,15.22-4.86,27.19-2.41,5.94-4,7.96-2.89,9.05,4.78,4.69,44.92-22.33,49.07-18.12,2.86,2.9-14.49,17.3-10.33,22.65,3.01,3.87,15.47.65,18.08,0,50.97-12.76,162.09-2.21,162.72-11.32.34-4.88-31.41-9.86-30.99-11.32.2-.69,1.27-.88,49.07,6.79-6.51-19.58-5.17-20.38-5.17-20.38,13.58,18.37,21.26,21.4,25.83,20.38,4.11-.92,4.23-4.78,10.33-9.06,10.92-7.64,27.45-7.13,28.41-4.53,1.19,3.21-21.47,9.43-20.66,13.59,2.04,10.43,131.73-2.26,131.73-2.26,358.15-.74,494.11.29,500.51,2.25.31.09,2.05.72,3.15.01,4.72-3.04-10.21-25.85-7.75-27.18,2.64-1.43,19.37,25.27,30.99,22.65,7.91-1.78,9.9-16.34,12.91-15.85,3.17.51.19,16.51,5.17,18.12,6.51,2.11,21.2-22.24,25.83-20.38,3.92,1.57-5.07,19.69,2.58,24.91,3.11,2.12,7,.78,12.91,0,24.17-3.19,41.24,8.35,43.91,4.53,2.71-3.88-14.48-16.46-12.91-18.12,2.15-2.28,34.72,21.06,41.33,15.85,3.82-3.01-3.84-13.35,0-15.85,1.7-1.11,3.02-1.4,25.83,11.32,11.58-6.25,12.91-6.79,12.91-6.79,10.31-4.22,24.35-3.58,25.83,0,1.39,3.38-16.8,10.2-15.5,13.59,1.12,2.91,14.76-1.18,33.58,0,24.21,1.52,38.2,10.59,41.33,6.79,3.55-4.31-12.73-18.11-10.33-20.38,3.55-3.37,41.83,24.57,46.49,20.38,1.74-1.56-2.99-5.95-5.17-15.85-1.92-8.74-1.74-21.31,2.58-22.65,8.69-2.68,30.87,41.11,38.74,38.5,4.16-1.38-2-13.64,5.17-27.18,8.02-15.16,28.52-23.94,33.58-20.38,3.21,2.26-1.74,8.13-2.58,22.65-.76,13.14,2.13,28.58,7.75,29.44,3.48.53,3.84-5.16,12.91-9.06,5.76-2.48,11.32-2.45,22.45-2.4.23,0,.5,0,.8.14,3.42,1.51-3.12,13.85,0,15.85,3.23,2.07,12.64-9.56,30.99-15.85,10.8-3.7,22.02-4.64,23.25-2.26,1.01,1.97-5.53,4.79-10.33,13.59-.56,1.03-5.12,9.51-2.58,11.32,2.26,1.61,8.45-3.25,15.5-6.79,21.32-10.72,48.05-8.1,49.07-4.53.64,2.24-8.24,6.96-12.51,8.85-3.5,1.55-5.68,2-5.57,2.47.24,1.08,12.42,1.68,25.22-1.17,5.36-1.2,9.4-2.68,10.94-1.09,1.56,1.6-.3,5.47-1.14,7.22-1.97,4.09-4.53,5.71-4.02,6.37.84,1.09,7.27-3.97,15.5-4.53,12.64-.86,19.03,9.63,25.83,6.79,4.14-1.73,5.81-7.3,5.17-11.32-1.37-8.62-13.68-12.22-12.91-13.59.99-1.77,23.57.82,30.99,13.59,4.82,8.28.33,15.81,5.17,18.2,4.16,2.05,8.86-2.84,23.25-6.87,9.53-2.67,19.87-4,20.66-2.26.99,2.17-13.82,7.32-12.91,11.32.49,2.19,5.76,4.35,25.83,4.53l1.29,454.1H-14.01l-1.29-435.99Z"/>
  <polygon class="st18" points="689.94 442.27 672.62 418.11 661.19 390.74 659.2 376.07 656.96 343.47 663.42 314.37 672.12 293.72 680.57 270.58 701.69 239.98 731 212.86 764.3 194.95 781.69 190.22 803.8 185.49 837.09 185.24 871.88 186.99 899.95 193.7 925.05 206.89 934.49 213.61 946.42 213.36 977.47 201.66 1008.03 192.71 1033.38 190.97 1073.87 192.21 1111.64 199.92 1147.67 212.11 1175.49 229.53 1205.06 253.41 1210.77 268.84 1224.19 290.48 1226.67 302.17 1227.67 323.82 1220.96 346.96 1216.49 367.11 1203.32 388.75 1203.57 395.72 1223.69 414.13 1236.86 430.55 1242.33 452.19 1247.3 472.6 1243.57 497.72 1233.88 524.84 1214 549.47 1214.25 558.68 1236.12 580.57 1247.3 603.46 1246.05 631.79 1234.38 656.2 1228.66 664.66 1213.51 678.84 1212.26 684.81 1224.94 701.73 1234.63 714.67 1237.36 722.63 1238.1 746.01 1233.88 765.17 1231.4 774.63 1215.25 791.79 1207.54 795.77 1208.29 804.73 1214.25 810.45 1224.19 819.16 1229.9 833.59 1229.41 859.96 1225.68 872.15 1213.26 885.09 1195.62 891.81 1195.37 899.77 1200.34 908.72 1199.84 929.37 1204.31 947.53 1210.28 975.65 1219.47 1000.78 1220.96 1016.95 1222.95 1037.1 1225.18 1057 1222.95 1070.44 1214.5 1078.65 1143.44 1078.65 1056.48 1078.65 961.57 1079.14 808.77 1076.66 806.29 1068.45 804.8 1002.52 805.62 985.38 808.07 952.42 787.76 962.74 762.54 962.09 727.15 945.07 707.84 915.8 695.5 891.92 689.01 870.05 681.06 849.98 680.99 828.45 691.48 815.88 702.28 798.78 702.5 793.17 696.2 786.87 688.43 779.85 681.06 767.04 681.01 743.44 685.14 730.98 692.3 719.06 698.02 710.07 698.03 704.79 687.2 691.75 664.92 668.02 660.22 659.91 657.26 644.01 660.2 620.48 664.46 607.32 683.47 582.41 687.94 579.77 687.1 573.23 676.74 565.62 663.1 548.58 649.32 530.41 647.53 507.48 652.01 483.52 667.69 464.77 684.66 454.33 689.61 451.86 689.94 442.27"/>
  <polygon class="st16" points="858.59 782.58 856.49 796.93 850.81 812.79 836.44 822.48 844.08 832.76 845.04 851.21 831.65 875.25 825.49 881.38 818.32 881.38 818.32 886.48 826.43 904.45 813.99 947.97 808.07 952.42 804.8 1002.52 808.77 1076.66 1214.5 1078.65 1225.18 1057 1222.95 1037.1 1219.47 1000.78 1199.46 933.95 1186.05 961.58 1146.57 980.41 1104.12 971.54 1079.15 940.7 1079.83 892.02 1096.31 863.89 1079.49 844.35 1071.31 840.73 1060.12 820.71 1068.93 788.96 1050.08 766.34 1046.36 805.03 989.11 929.37 970.5 980.04 949.93 1008.67 925.97 979.37 908.73 933.19 885.4 873.14 868.18 822.34 858.59 782.58"/>
  <polygon class="st6" points="862.94 786.15 878.44 793.56 913.21 803.86 935.43 809.6 946.72 810.77 969.32 810.77 985.72 803.55 993.93 798.46 1009.49 788.65 1021.37 783.32 1039.2 773.48 1043.17 768.97 1049.82 768.97 1049.82 778.61 1049.82 784.83 1047.81 789.87 1046.36 805.03 1040.74 815.9 1036.76 824.66 1027.67 839.61 1025.36 853.74 1019.41 860.23 1013.71 873.5 1008.02 887.33 1003.18 898.63 998.06 908.22 994.07 917.54 989.81 926.57 989.5 933.08 982.98 941.54 983.51 950.87 978.97 955.1 979.23 963.02 973.28 968.08 970.5 980.04 949.93 1008.67 925.97 979.37 921.35 959.98 915.17 951.2 912.38 940.72 905.11 920.9 895.88 895.42 885.4 873.14 874.6 843.6 871.01 819.83 864.29 803.41 862.94 786.15"/>
  <path class="st2" d="M920.8,805.8s-2.17,9.67,0,10.86,8.08,3.92,7.62,7.11c-.79,2.2-11.01,4.78-11.02,7.05,0,2.26,2.92,9.43,4.18,11.47,1.26,2.04,8.31,4.43,8.25,7.87-.06,3.44-12.66,12.87-12.43,15.34.23,2.47.79,10.41,2.25,11.61s9.11,5.2,8.58,9.67-7.89,8.65-8.95,10.98c-1.07,2.33-.01,9.93.7,15.23.71,5.29,6.94,8.21,8.08,12.77,1.14,4.55-9.06,9.84-9.06,9.84l.1,15.23,9.72,17.97-.17,6.93-2.66,3.64-1.26,1.41"/>
  <path class="st2" d="M946.72,810.77s-5.91,5.68-5.91,9.47,15.56,9.86,15.56,13.74-9.22,10.17-9.25,13.52,10.24,6.14,10.67,9.59c.43,3.46-13.4,14.75-13.28,19.63.11,4.88,12.65,10.15,13.28,15.05s-9.66,1.72-11.11,5.89c-1.45,4.16-.23,9.85-.22,13.3s7.66,6.65,8.06,11.55c.4,4.9-10.03,8.57-11.11,11.57-1.08,2.99-.17,10.71-.22,13.96-.05,3.25,6.72.61,7.19,5.89.47,5.28-9.46,8.95-9.36,11.78.1,2.82.16,9.76.44,12.43s9.56,2.37,9.58,6.54c.02,4.17-7.4,13.74-7.4,13.74l-2.17,2.54"/>
  <path class="st2" d="M974.8,807.81s-3.81,7.51-3.43,9.54c.38,2.03,13.14,11.99,13.23,13.87s-9.49,15.93-9.8,18.12,3.53,14.33,3.2,16.61-7.92,9.65-7.92,11.33.03,7.4,0,8.87,10.31,7.06,10.37,9.63c.06,2.56-11.12,9.73-11.12,11.7s.02,9.2,0,10.57,7.86,2.22,9.05,5.29c1.19,3.07-6.98,11.64-7.35,14.16s1.89,27.94,1.89,27.94l1.61,3.67"/>
  <line class="st2" x1="917.4" y1="830.81" x2="862.94" y2="800.6"/>
  <line class="st2" x1="917.4" y1="865.49" x2="870.28" y2="828.55"/>
  <line class="st2" x1="980.46" y1="825.6" x2="1049.32" y2="792.58"/>
  <line class="st2" x1="976.58" y1="858.38" x2="1035.75" y2="830.81"/>
  <path class="st0" d="M756.36,672.53l5.92-272.01,9.87-29.64s16.43-25.86,21.71-30.96c5.27-5.09,20.96-12.37,31.57-15.15,10.61-2.78,33.59-1.86,33.59-1.86,0,0,22.14.52,30.21,1.86,8.07,1.34,28.76,3.91,37.49,11.2,8.74,7.29,15.79,13.17,15.79,13.17,0,0,44.49-17.27,47.36-17.78s32.32-6.11,36.83-6.59,28.37,2.9,30.91,3.95,29.63,11.99,33.54,13.83,12.45,10.6,15.79,13.83,12.02,22.35,12.5,24.37,6.69,24.31,6.58,27.66c-.11,3.35-7.89,236.45-7.89,236.45l-7.89,43.47-19.73,42.81-40.68,37.83-40.33,19.68-40.18,22.12-33.89-1.17-56.99-16.04-53.67-24.59-38.81-32.56-20.39-24.37-9.21-39.52Z"/>
  <path class="st4" d="M880.53,701.78c6.04-2.01,107.7.35,107.7.35,0,0,18.24-.32,17.84,0-.4.32-8.91,3.61-31.91,5.61-15.39,1.34-97,0-97,0,0,0,1,0-15.13-1.4-10.6-.92,12.47-2.55,18.51-4.56Z"/>
  <path class="st13" d="M917.87,534.2l-54.23,84.63c-1.51,2.36-.51,5.51,2.08,6.57l82.16,33.42-.28-1.43c-.26-1.31-1.08-2.43-2.25-3.07l-62.89-34.24h0c-2.13-1.16-2.95-3.81-1.84-5.98l.41-.8,37.56-73.43c.62-1.21.66-2.65.09-3.89l-.81-1.79Z"/>
  <path class="st13" d="M866.71,623.02"/>
  <polygon class="st11" points="1040.57 495.42 1033.95 492.21 985.13 482.24 984.84 482.83 972.99 477.09 972.79 475.87 970.73 474.94 972.71 472.15 981.58 475.59 982.08 474.58 988.18 477.24 990.08 477.21 994.3 477.94 995.14 477.16 1004.2 480.23 1010.7 482.07 1011.52 481.35 1014.86 482.57 1014.94 481.76 1018 483.24 1019.46 482.17 1025.33 484.68 1027.58 484.26 1032.55 486.67 1034.82 486.19 1041.07 488.89 1045.5 492.08 1040.57 495.42"/>
  <polygon class="st11" points="813.63 501.48 819.8 497.17 867.25 479.04 867.63 479.57 878.65 471.87 878.66 470.63 880.6 469.36 878.19 466.93 869.81 471.84 869.16 470.92 863.44 474.59 861.53 474.88 857.41 476.31 856.45 475.69 847.83 480.26 841.58 483.18 840.65 482.61 837.49 484.38 837.28 483.59 834.44 485.57 832.81 484.76 827.31 488.24 824.99 488.2 820.37 491.43 818.01 491.34 812.16 495.07 808.2 499 813.63 501.48"/>
  <path class="st7" d="M835.24,522.5c0-5.96,5.15-10.79,11.49-10.79s11.49,4.83,11.49,10.79c0,4.3-3.03,7.31-3.54,7.79-.35.33-3.48,3.17-7.96,3-.64-.02-5.54-.14-8.9-4.22-.59-.72-2.59-3.21-2.59-6.57Z"/>
  <polygon class="st5" points="815.14 535.03 815.92 537.62 817.34 537.19 817.87 538.94 825.18 536.74 824.22 533.57 825.58 533.16 824.71 530.25 826.52 529.7 825.12 525.04 833.78 522.44 838.31 521.07 838.84 522.82 850.66 519.19 850.66 519.19 858.6 516.76 860.93 516.03 866.98 514.35 867.86 517.26 867.86 517.26 868.43 518.93 868.43 518.93 869.62 523.37 871.24 522.88 872.97 528.64 875.69 527.82 875.24 526.33 876.86 525.84 875.53 521.45 876.96 521.02 874.27 512.09 872.8 512.6 870.97 506.73 866.7 508.02 866.06 506.59 855.96 509.63 855.39 508.18 846.52 510.84 846.01 509.37 843.1 510.25 843.1 510.25 840.06 511.16 840.06 511.16 837.21 512.02 837.21 512.02 834.11 512.96 834.11 512.96 820.91 516.93 821.27 518.37 818.36 519.24 819.24 522.16 817.85 522.71 818.28 524.14 816.68 524.69 818.43 530.72 817.01 531.15 816.42 529.42 815.21 529.86 816.65 534.43 815.14 535.03"/>
  <polygon class="st5" points="971.06 516.61 970.71 519.29 972.19 519.48 971.95 521.28 979.53 522.26 979.95 518.97 981.36 519.15 981.74 516.14 983.62 516.38 984.24 511.55 993.22 512.71 997.91 513.31 997.68 515.12 1009.95 516.62 1009.95 516.62 1018.19 517.63 1020.61 517.92 1026.82 518.86 1026.44 521.87 1026.44 521.87 1026.28 523.62 1026.28 523.62 1025.56 528.16 1027.24 528.38 1026.47 534.34 1029.29 534.7 1029.48 533.16 1031.16 533.38 1031.74 528.82 1033.22 529.01 1034.41 519.76 1032.86 519.63 1033.57 513.53 1029.15 512.96 1029.14 511.39 1018.69 510.05 1018.76 508.49 1009.58 507.31 1009.71 505.76 1006.69 505.38 1006.69 505.38 1003.54 504.97 1003.54 504.97 1000.59 504.59 1000.59 504.59 997.38 504.18 997.38 504.18 983.71 502.43 983.45 503.89 980.43 503.51 980.05 506.52 978.56 506.47 978.37 507.94 976.68 507.79 975.82 514.02 974.34 513.83 974.51 512.01 973.23 511.91 972.68 516.68 971.06 516.61"/>
  <path class="st7" d="M993.9,518.71c0-5.96,5.15-10.79,11.49-10.79s11.49,4.83,11.49,10.79c0,4.3-3.03,7.31-3.54,7.79-.35.33-3.48,3.17-7.96,3-.64-.02-5.54-.14-8.9-4.22-.59-.72-2.59-3.21-2.59-6.57Z"/>
  <path class="st12" d="M995.66,872.89c1.04-1.7-.68-2.69-.11-6.66.36-2.52,1.31-3.95,3.11-7.32,3.2-6.02,2.99-6.78,4.68-9.77,3.67-6.5,9.09-10.72,14.28-14.77,8.02-6.26,16.45-6.44,19.97-11.84.53-.81,1.82-2.85,1.53-5.48-.1-.89-.33-3.02-2.5-4.81-2.27-1.87-5.84-2.69-8.91-2.28-2.53.34-3.08,1.31-8,3.77-3.72,1.86-4.57,1.88-7.21,3.15-3.88,1.86-6.09,3.76-10.36,7.44-6.2,5.35-10.13,9.93-11.11,11.09-2.23,2.63-5.6,6.65-8.68,12.26-4.22,7.69-2.33,8.25-6.98,17.68-2.79,5.67-4.2,6.95-3.09,8.53,3.11,4.4,20.56,3.62,23.37-.99Z"/>
  <path class="st9" d="M945.7,874.92c-8.75-5.5-15.86-10.39-21.19-14.19-7.96-5.69-10.64-8.02-13.08-11.3-.97-1.3-4.66-6.44-5.87-13.84-.65-4.02,0-5.16,2.13-18.21,2.15-13.19,1.96-14.98,4.58-16.43,1.17-.65,3.59-1.61,24.23,2.03,9.84,1.74,14.76,2.61,18.61,3.94,3.98,1.38,12.93,4.57,20.35,11.78,1.23,1.2,5.47,5.48,8.26,11.98.56,1.31,2.36,5.74,2.62,12.68.39,10.14.58,20.28-8.44,26.79-11.31,8.17-29.71,5.19-32.18,4.77Z"/>
  <path class="st15" d="M963.37,870.39c-3.63-4.42-.64-7.13-3.46-14.48-1.07-2.78-2.37-4.66-4.97-8.4-2.69-3.86-5.04-6.42-9.04-10.76-4.88-5.29-7.32-7.94-9.01-8.94-4.17-2.46-8.18-3.3-9.78-6.5-.3-.59-1.19-2.37-.06-3.63.57-.64,1.47-.94,2.4-1.25,0,0,1.94-.65,4.02-.67,5.08-.05,13.86,9.47,13.86,9.47,11.24,12.18,9.95,9.04,13.94,14.31,8.56,11.31,10.53,20.55,11.71,26.46,1.49,7.45.29,8.75-.66,9.1-2.1.78-6.51-1.74-8.95-4.7Z"/>
  <path class="st14" d="M998.8,867.38c-8.33,1.45-20.71,2.59-33.88-.66-11.2-2.76-13.11-6.26-24.34-9.29-18.57-5.02-36.17-1.63-41.14-.54-22.83,5.02-35.14,17.86-38.37,21.23-25.94,27.05-10.27,63.84-4.41,77.61,0,0,20.73,48.69,75.25,66.62,4.16,1.37,10.55,3.47,18.59,2.72,9.08-.84,10.58-4.42,22.47-7.03,4.29-.94,13.04-2.79,22.56-.98,8.17,1.55,11.11,4.7,15.42,6.41,17.17,6.82,50.07-11.36,67.34-24.73,4.56-3.53,27.94-22.12,37.06-52.71,7.97-26.72.57-47.59-1.66-53.28-4.71-12.08-9.56-24.5-25.52-32.9-18.13-9.54-38.91-7.74-46.08-7.12-22.62,1.95-37.72,10.94-43.31,14.64Z"/>
  <path class="st17" d="M1012.53,868.37c-2.66,16.97,39.67,25.34,45.06,44.09,8.61,29.94-73.25,85.73-135.85,77.95-8.85-1.1-31.09-9.94-36.37-4.86-1.37,1.32-1.08,3.03-.73,4.86,1.3,6.82,7.48,9.44,29.41,23.75,2.91,1.9,8.82,5.49,17.9,8.64.77.27,1.53.49,2.41.73,16.47,4.4,27.74.78,29.83-.49.04-.02.18-.11.39-.24.92-.55,3.22-1.84,6.49-3.08,1.01-.38,2.17-.75,3.53-1.09,2.79-.69,9.58-2.03,21.78.25,10.35,1.93,16.02,4.86,20.26,6.33,23.21,8.04,56.51-9.48,58.7-10.65,21.64-11.65,28.93-28.06,36.38-44.82,7.72-17.38,8.4-31.97,8.97-44.37.45-9.79-.32-16.23-1.97-22.38-2.51-9.33-6.54-16.08-9.2-20.45-5-8.24-8.28-13.64-15.63-19.13-3.66-2.74-10.01-7.44-20.32-9.97-9.39-2.3-17.89-1.8-24.22-1.42-4.21.25-7.17.69-12.07,1.41-9.97,1.47-15.02,2.25-18.48,4.54-5.18,3.44-6.01,8.61-6.29,10.4Z"/>
  <text id="HMMM..." class="st10" transform="translate(1247.2 225.65)"><tspan x="0" y="0">HMMM...</tspan><tspan x="0" y="86.4"> </tspan></text>
  <text/>
  <text/>
  <text class="st8" transform="translate(1224.33 1391.72)"><tspan x="0" y="0">Lorem ipsum</tspan></text>
  <text/>
</svg>